<?xml version="1.0" encoding="UTF-8"?>
<svg id="uuid-9cf5e89d-e97c-4f43-96f9-acc05f2c6fc1" data-name="Capa 1" xmlns="http://www.w3.org/2000/svg" xmlns:xlink="http://www.w3.org/1999/xlink" viewBox="0 0 570 279.23">
  <defs>
    <clipPath id="uuid-9f6c1a8c-a72d-4472-bfcb-72529f288d0a">
      <path d="m207.91,143.45c-.25-3.61-7.49-10.31-7.49-10.31,3.75-6.45,11.15-9.83,9.43-16.35-1.39-5.24-18.6-11.8-21.83-21.41-2.9-8.63,1.7-13.64-5.75-38.77-5.01-16.92-41.94-70.92-111.09-53C19.94,16.88-10.07,64.99,3.09,116.27c0,0,6.16,39.83,37.6,66.11,17.48,14.6,16.16,11.43,12.47,27.23-2.53,10.76-20.05,23.88-30.43,44.97,68.41-7.83,67.42,19.62,145.7,11.99-2.37-4.47-10.7-18.36-27.05-28.32-19.74-12.05-20.13-27.3-13.5-32.88,7.62-6.41,56.41,1.05,73.54-13.29,5.44-4.56,7.3-18.31,3.82-28.62,0,0,7.78-7.28-3.61-10.62,3.67-2.62,6.51-6.04,6.28-9.39Z" style="fill: none;"/>
    </clipPath>
  </defs>
  <g style="clip-path: url(#uuid-9f6c1a8c-a72d-4472-bfcb-72529f288d0a);">
    <g>
      <g>
        <path d="m101.4,62.93v101.4h-27.89c1.28-2.99,1.99-6.27,1.99-9.73,0-13.68-11.1-24.78-24.8-24.78s-24.79,11.09-24.79,24.78c0,3.46.7,6.74,1.99,9.73H0V62.93h27.9c-1.29,2.99-1.99,6.27-1.99,9.73,0,13.68,11.09,24.78,24.79,24.78s24.8-11.09,24.8-24.78c0-3.46-.71-6.74-1.99-9.73h27.89Z" style="fill: #eb5952;"/>
        <circle cx="118.18" cy="113.63" r="17.74" style="fill: #eb5952;"/>
      </g>
      <g>
        <path d="m108.45,62.93h101.4v101.4h-101.4v-27.89c2.99,1.28,6.27,1.98,9.73,1.98,13.68,0,24.78-11.1,24.78-24.79s-11.1-24.79-24.78-24.79c-3.46,0-6.74.7-9.73,1.98v-27.89Z" style="fill: #66b32e;"/>
        <circle cx="159.15" cy="46.16" r="17.74" style="fill: #66b32e;"/>
        <circle cx="159.15" cy="181.1" r="17.74" style="fill: #66b32e;"/>
      </g>
      <g>
        <path d="m108.45,55.87V-45.52h101.4V55.87h-27.89c1.28-2.99,1.98-6.27,1.98-9.73,0-13.68-11.1-24.78-24.79-24.78s-24.79,11.1-24.79,24.78c0,3.46.7,6.74,1.98,9.73h-27.89Z" style="fill: #456fb5;"/>
        <circle cx="91.68" cy="5.17" r="17.74" style="fill: #456fb5;"/>
      </g>
      <g>
        <path d="m101.4,55.87H0V-45.52h101.4v27.89c-2.99-1.28-6.27-1.98-9.73-1.98-13.68,0-24.78,11.1-24.78,24.79s11.1,24.79,24.78,24.79c3.46,0,6.74-.7,9.73-1.98v27.89Z" style="fill: #f7aa4c;"/>
        <circle cx="50.7" cy="72.65" r="17.74" style="fill: #f7aa4c;"/>
      </g>
      <g>
        <path d="m108.45,171.38v101.4h101.4v-101.4h-27.89c1.28,2.99,1.98,6.27,1.98,9.73,0,13.68-11.1,24.78-24.79,24.78s-24.79-11.1-24.79-24.78c0-3.46.7-6.74,1.98-9.73h-27.89Z" style="fill: #f7aa4c;"/>
        <circle cx="91.68" cy="222.08" r="17.74" style="fill: #f7aa4c;"/>
      </g>
      <g>
        <path d="m101.4,171.38H0v101.4h101.4v-27.89c-2.99,1.28-6.27,1.98-9.73,1.98-13.68,0-24.78-11.1-24.78-24.79s11.1-24.79,24.78-24.79c3.46,0,6.74.7,9.73,1.98v-27.89Z" style="fill: #456fb5;"/>
        <circle cx="50.7" cy="154.61" r="17.74" style="fill: #456fb5;"/>
      </g>
    </g>
  </g>
  <text transform="translate(204.85 264.77)" style="fill: #dda210; font-family: Rockwell-ExtraBold, &apos;Rockwell Extra Bold&apos;; font-size: 53.55px; font-weight: 700;"><tspan x="0" y="0">EC</tspan><tspan x="83.1" y="0" style="letter-spacing: -.02em;">U</tspan><tspan x="120.8" y="0" style="letter-spacing: -.02em;">A</tspan><tspan x="160.42" y="0">COGNI</tspan></text>
</svg>